<svg preserveAspectRatio="none" overflow="visible" style="display: block;" width="16" height="16" viewBox="0 0 16 16" fill="none" xmlns="http://www.w3.org/2000/svg">
<g id="Frame">
<path id="Vector" d="M8.9975 14.4333L8.23083 13.6667L10.5975 11.3L4.7 5.4025L2.33333 7.76917L1.56667 7.0025L2.51283 6.03583L1.74617 5.26917L3.14617 3.86917L2.21283 2.91533L2.91533 2.21283L3.86917 3.14617L5.26917 1.74617L6.03583 2.51283L7.0025 1.56667L7.76917 2.33333L5.4025 4.7L11.3 10.5975L13.6667 8.23083L14.4333 8.9975L13.4872 9.96417L14.2538 10.7308L12.8538 12.1308L13.7872 13.0847L13.0847 13.7872L12.1308 12.8538L10.7308 14.2538L9.96417 13.4872L8.9975 14.4333Z" fill="#8F8F8F"/>
</g>
</svg>
